<svg aria-hidden="true" style="position:absolute;width:0;height:0;overflow:hidden" xmlns="http://www.w3.org/2000/svg">
  <defs>
    <symbol id="icon-chocolate2" viewBox="0 0 32 32">
      <path style="fill:var(--color1, #000)" d="m13.822 2.413 7.527 7.536.08-.08a.856.856 0 0 1 1.184-.013l.873.873c.305.305.315.77.083 1.094l-.004.007-.143.192 6.16 6.16c.55.55.55 1.43 0 1.98l-9.43 9.43c-.55.55-1.43.55-1.98 0l-4.447-4.447a.853.853 0 0 1-.612.317.842.842 0 0 1-.644-.246l-2.6-2.6a.856.856 0 0 1-.013-1.184l.006-.007.077-.076-7.527-7.527c-.55-.55-.55-1.43 0-1.98l9.43-9.43c.55-.55 1.43-.55 1.98 0v.001zm6.582 8.48-1.756-1.755a.59.59 0 0 0-.85 0l-3.58 3.58a.621.621 0 0 0-.179.43.602.602 0 0 0 .179.43l1.749 1.749.61-.61-1.565-1.565 3.21-3.22 1.569 1.574.613-.613zm-5.076 5.072-1.754-1.754a.59.59 0 0 0-.85 0l-3.59 3.59c-.24.23-.24.61 0 .85l1.752 1.752.616-.616-1.57-1.564 3.22-3.21 1.564 1.563.612-.611zM8.822 8.193l3.58 3.58c.24.24.62.24.85-.01l3.58-3.58a.57.57 0 0 0 .18-.42h.01c0-.15-.06-.31-.18-.43l-3.58-3.58a.602.602 0 0 0-.86 0l-3.58 3.59c-.24.23-.24.61 0 .85zm-5.07 5.07 3.58 3.58c.24.24.62.24.85 0l3.58-3.58a.578.578 0 0 0 .18-.43h.01c0-.16-.06-.31-.18-.43l-3.58-3.58a.59.59 0 0 0-.85 0l-3.59 3.59c-.24.23-.24.61 0 .85zm6.933 8.754 2.362 2.363 9.636-13.04-.655-.655-11.343 11.332z"/>
      <path fill="#fd9222" style="fill:var(--color2, #fd9222)" d="m13.822 2.413 7.527 7.536.08-.08a.856.856 0 0 1 1.184-.013l.873.873c.305.305.315.77.083 1.094l-.004.007-.143.192 6.16 6.16c.55.55.55 1.43 0 1.98l-9.43 9.43c-.55.55-1.43.55-1.98 0l-4.447-4.447a.853.853 0 0 1-.612.317.842.842 0 0 1-.644-.246l-2.6-2.6a.856.856 0 0 1-.013-1.184l.006-.007.077-.076-7.527-7.527c-.55-.55-.55-1.43 0-1.98l9.43-9.43c.55-.55 1.43-.55 1.98 0v.001zm6.582 8.48-1.756-1.755a.59.59 0 0 0-.85 0l-3.58 3.58a.621.621 0 0 0-.179.43.602.602 0 0 0 .179.43l1.749 1.749.61-.61-1.565-1.565 3.21-3.22 1.569 1.574.613-.613zm-5.076 5.072-1.754-1.754a.59.59 0 0 0-.85 0l-3.59 3.59c-.24.23-.24.61 0 .85l1.752 1.752.616-.616-1.57-1.564 3.22-3.21 1.564 1.563.612-.611zM8.822 8.193l3.58 3.58c.24.24.62.24.85-.01l3.58-3.58a.57.57 0 0 0 .18-.42h.01c0-.15-.06-.31-.18-.43l-3.58-3.58a.602.602 0 0 0-.86 0l-3.58 3.59c-.24.23-.24.61 0 .85zm-5.07 5.07 3.58 3.58c.24.24.62.24.85 0l3.58-3.58a.578.578 0 0 0 .18-.43h.01c0-.16-.06-.31-.18-.43l-3.58-3.58a.59.59 0 0 0-.85 0l-3.59 3.59c-.24.23-.24.61 0 .85zm6.933 8.754 2.362 2.363 9.636-13.04-.655-.655-11.343 11.332z"/>
    </symbol>
    <symbol id="icon-dollar" viewBox="0 0 32 32">
      <path fill="#fd9222" style="fill:var(--color2, #fd9222)" d="M16 2.667c-7.333 0-13.333 6-13.333 13.333s6 13.333 13.333 13.333 13.333-6 13.333-13.333S23.333 2.667 16 2.667zm0 24c-5.867 0-10.667-4.8-10.667-10.667S10.133 5.333 16 5.333 26.667 10.133 26.667 16 21.867 26.667 16 26.667z"/>
      <path fill="#fd9222" style="fill:var(--color2, #fd9222)" d="M17.733 14.667h-3.467c-.667 0-1.2-.533-1.2-1.2s.533-1.2 1.2-1.2h4.933c.8 0 1.333-.533 1.333-1.333s-.533-1.333-1.333-1.333h-1.867v-1.2c0-.8-.533-1.333-1.333-1.333s-1.333.533-1.333 1.333v1.2h-.4c-2.133 0-3.867 1.733-3.867 3.867s1.733 3.867 3.867 3.867h3.333c.667 0 1.2.533 1.2 1.2s-.533 1.2-1.2 1.2h-4.933c-.8 0-1.333.533-1.333 1.333s.533 1.333 1.333 1.333h2v1.2c0 .8.533 1.333 1.333 1.333s1.333-.533 1.333-1.333v-1.2h.4c2.133 0 3.867-1.733 3.867-3.867s-1.733-3.867-3.867-3.867z"/>
    </symbol>
    <symbol id="icon-instagram" viewBox="0 0 32 32">
      <path stroke-linejoin="round" stroke-linecap="round" stroke-width="2.182" d="M22.667 2.667H9.334a6.667 6.667 0 0 0-6.667 6.667v13.333a6.667 6.667 0 0 0 6.667 6.667h13.333a6.667 6.667 0 0 0 6.667-6.667V9.334a6.667 6.667 0 0 0-6.667-6.667z"/>
      <path stroke-linejoin="round" stroke-linecap="round" stroke-width="2.182" d="M21.333 15.16a5.338 5.338 0 0 1-6.123 6.049 5.334 5.334 0 0 1-3.916-7.663 5.333 5.333 0 0 1 8.536-1.374 5.328 5.328 0 0 1 1.504 2.989zM23.333 8.667h.015"/>
    </symbol>
    <symbol id="icon-menu" viewBox="0 0 32 32">
      <path stroke-linejoin="round" stroke-linecap="round" stroke-width="2.286" d="M4 16h24M4 8h24M4 24h24"/>
    </symbol>
    <symbol id="icon-ok" viewBox="0 0 32 32">
      <path fill="#fd9222" style="fill:var(--color2, #fd9222)" d="M16.947 17.867a1.334 1.334 0 0 1-1.894 0l-6.107-6.12a1.334 1.334 0 1 0-1.894 1.88l6.12 6.12a4.001 4.001 0 0 0 5.654 0l6.12-6.12a1.337 1.337 0 0 0-.434-2.172 1.331 1.331 0 0 0-1.46.292l-6.107 6.12z"/>
    </symbol>
    <symbol id="icon-Rectangle" viewBox="0 0 32 32">
      <path fill="#fd9222" style="fill:var(--color2, #fd9222)" d="M24.276 8.828H7.724a7.172 7.172 0 1 0 0 14.344h16.552a7.172 7.172 0 1 0 0-14.344z"/>
    </symbol>
    <symbol id="icon-spoon" viewBox="0 0 32 32">
      <path fill="#fd9222" style="fill:var(--color2, #fd9222)" d="M15.451 14.106a5.154 5.154 0 0 1-1.177-3.282c0-4.324 5.181-8.642 10.362-8.642a5.183 5.183 0 0 1 5.181 5.182c0 5.182-4.318 10.364-8.646 10.364a5.151 5.151 0 0 1-3.281-1.177L5.132 29.312a1.73 1.73 0 0 1-2.445-2.445l12.764-12.761z"/>
    </symbol>
    <symbol id="icon-Vector-1" viewBox="0 0 32 32">
      <path fill="none" stroke="#fd9222" style="stroke:var(--color2, #fd9222)" stroke-linejoin="round" stroke-linecap="round" stroke-width="2.743" d="M22.396 23.118 8.211 14.254m3.912-6.417 14.186 8.864m-14.917 8.401 11.736-19.25m4.81 8.175c-3.04-1.899-4.234-3.384-2.278-6.592L16.034 1.42 4.298 20.67l14.186 8.864 9.454-15.507z"/>
    </symbol>
    <symbol id="icon-twitter" viewBox="0 0 32 32">
      <path stroke-linejoin="round" stroke-linecap="round" stroke-width="2.182" d="M30.667 4.727a14.53 14.53 0 0 1-4.187 2.04 5.975 5.975 0 0 0-6.637-1.661A5.981 5.981 0 0 0 16 10.767V12.1c-2.343.061-4.665-.459-6.759-1.513S4.983 7.024 3.636 5.106c0 0-4.97 12.954 7.03 18.287a15.519 15.519 0 0 1-9.333 2.667c12 6.667 26.667 0 26.667-15.333a5.966 5.966 0 0 0-.107-1.107 10.288 10.288 0 0 0 2.773-4.893z"/>
    </symbol>
  </defs>
</svg>
